<?xml version="1.0" encoding="UTF-8" standalone="no"?>
<!-- Created with Inkscape (http://www.inkscape.org/) -->

<svg
   width="2000"
   height="1000"
   viewBox="0 0 529.16665 264.58333"
   version="1.1"
   id="svg1"
   xml:space="preserve"
   sodipodi:docname="og-image.svg"
   inkscape:export-filename="og-image.png"
   inkscape:export-xdpi="72"
   inkscape:export-ydpi="72"
   inkscape:version="1.4 (86a8ad7, 2024-10-11)"
   xmlns:inkscape="http://www.inkscape.org/namespaces/inkscape"
   xmlns:sodipodi="http://sodipodi.sourceforge.net/DTD/sodipodi-0.dtd"
   xmlns="http://www.w3.org/2000/svg"
   xmlns:svg="http://www.w3.org/2000/svg"><sodipodi:namedview
     id="namedview1"
     pagecolor="#505050"
     bordercolor="#eeeeee"
     borderopacity="1"
     inkscape:showpageshadow="0"
     inkscape:pageopacity="0"
     inkscape:pagecheckerboard="0"
     inkscape:deskcolor="#505050"
     inkscape:document-units="px"
     inkscape:zoom="0.55188342"
     inkscape:cx="552.65295"
     inkscape:cy="399.5409"
     inkscape:window-width="2560"
     inkscape:window-height="1369"
     inkscape:window-x="-8"
     inkscape:window-y="224"
     inkscape:window-maximized="1"
     inkscape:current-layer="layer1" /><defs
     id="defs1" /><g
     inkscape:label="Layer 1"
     inkscape:groupmode="layer"
     id="layer1"><rect
       style="fill:#121416;fill-opacity:1;stroke:none;stroke-width:1.36623"
       id="rect2"
       width="527.80042"
       height="263.2171"
       x="1.3662399"
       y="1.3662255" /><rect
       style="display:none;fill:#121416;fill-opacity:1;stroke:#ffffff;stroke-width:1.1017"
       id="rect1"
       width="342.85663"
       height="263.48163"
       x="93.155014"
       y="0.55084956" /><g
       id="g2"
       transform="matrix(0.55813586,0,0,0.55813586,118.068,79.675024)"><path
         style="fill:none;fill-opacity:1;stroke:#bd63ee;stroke-width:11.1125;stroke-linecap:round;stroke-linejoin:round;stroke-miterlimit:4;stroke-dasharray:none;stroke-opacity:1"
         d="M 122.37136,34.925 53.843229,153.6192"
         id="path3" /><path
         style="fill:none;fill-opacity:1;stroke:#6262ee;stroke-width:11.1125;stroke-linecap:round;stroke-linejoin:round;stroke-miterlimit:4;stroke-dasharray:none;stroke-opacity:1"
         d="M 53.843231,34.924999 122.37136,153.6192"
         id="path2" /><path
         style="fill:none;fill-opacity:1;stroke:#26bbd9;stroke-width:11.1125;stroke-linecap:round;stroke-linejoin:round;stroke-miterlimit:4;stroke-dasharray:none;stroke-opacity:1"
         d="M 19.579166,94.272101 H 156.63543"
         id="path847" /></g><path
       fill="#bdddf4"
       d="m 393.35333,126.11816 c 0,-8.55039 -6.52142,-15.57386 -14.85985,-16.38055 -1.84177,-8.28699 -9.22332,-14.487322 -18.06593,-14.487322 -10.22955,0 -18.52066,7.325982 -18.52066,17.555592 0,2.37888 0.5145,5.98013 2.30685,7.78899 -6.7127,0.37861 -16.51842,0.58441 -24.9433,-0.61941 0,0 9.91062,7.88366 31.60252,8.20056 -0.31062,0.64409 -0.52237,2.94274 -0.63,3.67534 -0.51275,0.006 -1.22437,0.0184 -2.16281,0.0184 -16.46284,-3e-5 -28.80997,-1.63603 -28.80997,-1.63603 0,0 6.17361,6.65511 31.70333,8.44957 -0.83563,0.26338 -0.83563,3.89757 -0.83563,3.89757 -16.46285,0 -30.86788,-2.05785 -30.86788,-2.05785 6.9185,5.76612 13.83707,8.29934 18.58244,9.41264 -0.0262,0.29225 -0.0613,0.57829 -0.0613,0.87665 0,6.81769 5.52742,10.28929 12.34713,10.28929 1.00222,0 1.97145,-0.13169 2.90568,-0.35805 3.28648,5.15904 9.04429,8.58949 15.61507,8.58949 10.22964,0 18.52074,-8.2911 18.52074,-18.52072 0,-3.67944 -1.08457,-7.09754 -2.93657,-9.98266 5.39565,-2.69991 9.11009,-8.26641 9.11009,-14.71162 z"
       stroke-width="2.05788"
       id="path1-8" /><g
       id="g3"
       transform="matrix(2.5796874,0,0,2.5796874,223.30833,91.016665)"><path
         fill="#e1e8ed"
         d="m 28.813333,8.5208889 -8,-8.00000001 C 20.492444,0.2 20.047111,0 19.555556,0 c -0.981334,0 -1.776889,0.79644444 -1.777778,1.7777778 0,0.4906666 0.199111,0.936 0.520889,1.2577778 l -3.430223,3.4302222 8,8.0000002 3.430223,-3.430222 c 0.321777,0.320888 0.766222,0.52 1.256889,0.52 0.981333,0 1.778666,-0.796445 1.777777,-1.7777782 0,-0.4906667 -0.199111,-0.9351111 -0.52,-1.2568889 z"
         stroke-width="0.8889"
         id="path1-2" /><path
         fill="#ccd6dd"
         d="M 19.555556,0 H 6.2222222 C 4.2586667,0 2.6666667,1.592 2.6666667,3.5555556 V 28.444444 C 2.6666667,30.408 4.2586667,32 6.2222222,32 H 25.777778 c 1.963555,0 3.555555,-1.592 3.555555,-3.555556 V 9.7777778 h -8 C 20.444444,9.7777778 19.555556,8.8888889 19.555556,8 Z"
         stroke-width="0.8889"
         id="path2-4" /><path
         fill="#99aab5"
         d="m 19.555556,0 h -1.777778 v 8 c 0,1.9635556 1.592,3.555556 3.555555,3.555556 h 8 V 9.7777778 h -8 C 20.444444,9.7777778 19.555556,8.8888889 19.555556,8 Z M 15.111111,7.1111111 C 15.111111,7.6017778 14.712889,8 14.222222,8 H 7.1111111 C 6.6204444,8 6.2222222,7.6017778 6.2222222,7.1111111 c 0,-0.4906667 0.3982222,-0.8888889 0.8888889,-0.8888889 h 7.1111109 c 0.490667,0 0.888889,0.3982222 0.888889,0.8888889 z m 0,3.5555559 c 0,0.490666 -0.398222,0.888889 -0.888889,0.888889 H 7.1111111 c -0.4906667,0 -0.8888889,-0.398223 -0.8888889,-0.888889 0,-0.490667 0.3982222,-0.8888892 0.8888889,-0.8888892 h 7.1111109 c 0.490667,0 0.888889,0.3982222 0.888889,0.8888892 z m 10.666667,3.555555 c 0,0.490667 -0.397334,0.888889 -0.888889,0.888889 H 7.1111111 c -0.4906667,0 -0.8888889,-0.398222 -0.8888889,-0.888889 0,-0.490666 0.3982222,-0.888889 0.8888889,-0.888889 H 24.888889 c 0.491555,0 0.888889,0.398223 0.888889,0.888889 z m 0,3.555556 c 0,0.491555 -0.397334,0.888889 -0.888889,0.888889 H 7.1111111 c -0.4906667,0 -0.8888889,-0.397334 -0.8888889,-0.888889 0,-0.491556 0.3982222,-0.888889 0.8888889,-0.888889 H 24.888889 c 0.491555,0 0.888889,0.397333 0.888889,0.888889 z m 0,3.555555 c 0,0.491556 -0.397334,0.888889 -0.888889,0.888889 H 7.1111111 c -0.4906667,0 -0.8888889,-0.397333 -0.8888889,-0.888889 0,-0.491555 0.3982222,-0.888889 0.8888889,-0.888889 H 24.888889 c 0.491555,0 0.888889,0.397334 0.888889,0.888889 z m 0,3.555556 c 0,0.491555 -0.397334,0.888889 -0.888889,0.888889 H 7.1111111 c -0.4906667,0 -0.8888889,-0.397334 -0.8888889,-0.888889 C 6.2222222,24.397333 6.6204444,24 7.1111111,24 H 24.888889 c 0.491555,0 0.888889,0.397333 0.888889,0.888889 z"
         stroke-width="0.8889"
         id="path3-5" /></g></g><style
     type="text/css"
     id="style1">
	.st0{fill:#FF3E00;}
	.st1{fill:#FFFFFF;}
</style></svg>
